<?xml version="1.0" encoding="UTF-8" standalone="no"?>
<!DOCTYPE svg PUBLIC "-//W3C//DTD SVG 1.1//EN"
 "http://www.w3.org/Graphics/SVG/1.1/DTD/svg11.dtd">
<!-- Generated by graphviz version 2.43.0 (0)
 -->
<!-- Title: %3 Pages: 1 -->
<svg width="1668pt" height="1217pt"
 viewBox="0.00 0.00 1668.00 1217.43" xmlns="http://www.w3.org/2000/svg" xmlns:xlink="http://www.w3.org/1999/xlink">
<g id="graph0" class="graph" transform="scale(1 1) rotate(0) translate(4 1213.43)">
<title>%3</title>
<polygon fill="white" stroke="transparent" points="-4,4 -4,-1213.43 1664,-1213.43 1664,4 -4,4"/>
<g id="clust1" class="cluster">
<title>cluster_1</title>
<polygon fill="none" stroke="black" points="1020,-8 1020,-985.43 1362,-985.43 1362,-8 1020,-8"/>
</g>
<g id="clust15" class="cluster">
<title>cluster_2</title>
<polygon fill="none" stroke="black" points="1370,-224 1370,-1201.43 1652,-1201.43 1652,-224 1370,-224"/>
</g>
<g id="clust29" class="cluster">
<title>cluster_3</title>
<polygon fill="none" stroke="black" points="410,-296 410,-913.43 824,-913.43 824,-296 410,-296"/>
</g>
<g id="clust43" class="cluster">
<title>cluster_4</title>
<polygon fill="none" stroke="black" points="8,-296 8,-985.43 402,-985.43 402,-296 8,-296"/>
</g>
<g id="clust57" class="cluster">
<title>cluster_0</title>
<polygon fill="none" stroke="black" points="832,-789.43 832,-841.43 1012,-841.43 1012,-789.43 832,-789.43"/>
</g>
<g id="clust59" class="cluster">
<title>cluster_5</title>
<polygon fill="none" stroke="black" points="863,-512 863,-697.43 981,-697.43 981,-512 863,-512"/>
</g>
<!-- cd -->
<g id="node1" class="node">
<title>cd</title>
<polygon fill="none" stroke="black" points="206,-977.43 152,-977.43 152,-941.43 206,-941.43 206,-977.43"/>
<text text-anchor="middle" x="179" y="-955.73" font-family="Times,serif" font-size="14.00">cd</text>
</g>
<!-- gh -->
<g id="node43" class="node">
<title>gh</title>
<ellipse fill="none" stroke="black" cx="179" cy="-815.43" rx="27" ry="18"/>
<text text-anchor="middle" x="179" y="-811.73" font-family="Times,serif" font-size="14.00">gh</text>
</g>
<!-- cd&#45;&gt;gh -->
<g id="edge82" class="edge">
<title>cd&#45;&gt;gh</title>
<path fill="none" stroke="blue" d="M179,-941.3C179,-917.1 179,-872.64 179,-843.82"/>
<polygon fill="blue" stroke="blue" points="182.5,-843.62 179,-833.62 175.5,-843.62 182.5,-843.62"/>
</g>
<!-- jx -->
<g id="node48" class="node">
<title>jx</title>
<polygon fill="none" stroke="black" points="160,-905.43 106,-905.43 106,-869.43 160,-869.43 160,-905.43"/>
<text text-anchor="middle" x="133" y="-883.73" font-family="Times,serif" font-size="14.00">jx</text>
</g>
<!-- cd&#45;&gt;jx -->
<g id="edge83" class="edge">
<title>cd&#45;&gt;jx</title>
<path fill="none" stroke="blue" d="M167.63,-941.13C162.28,-932.99 155.8,-923.12 149.89,-914.13"/>
<polygon fill="blue" stroke="blue" points="152.66,-911.97 144.24,-905.53 146.81,-915.81 152.66,-911.97"/>
</g>
<!-- bk -->
<g id="node2" class="node">
<title>bk</title>
<polygon fill="none" stroke="black" points="1306,-977.43 1252,-977.43 1252,-941.43 1306,-941.43 1306,-977.43"/>
<text text-anchor="middle" x="1279" y="-955.73" font-family="Times,serif" font-size="14.00">bk</text>
</g>
<!-- cn -->
<g id="node20" class="node">
<title>cn</title>
<ellipse fill="none" stroke="black" cx="1233" cy="-815.43" rx="27" ry="18"/>
<text text-anchor="middle" x="1233" y="-811.73" font-family="Times,serif" font-size="14.00">cn</text>
</g>
<!-- bk&#45;&gt;cn -->
<g id="edge23" class="edge">
<title>bk&#45;&gt;cn</title>
<path fill="none" stroke="blue" d="M1279.48,-941.14C1279.44,-922.78 1277.79,-893.2 1269,-869.43 1265.12,-858.94 1258.74,-848.52 1252.42,-839.73"/>
<polygon fill="blue" stroke="blue" points="1255.04,-837.4 1246.21,-831.54 1249.46,-841.63 1255.04,-837.4"/>
</g>
<!-- jp -->
<g id="node28" class="node">
<title>jp</title>
<polygon fill="none" stroke="black" points="1260,-905.43 1206,-905.43 1206,-869.43 1260,-869.43 1260,-905.43"/>
<text text-anchor="middle" x="1233" y="-883.73" font-family="Times,serif" font-size="14.00">jp</text>
</g>
<!-- bk&#45;&gt;jp -->
<g id="edge24" class="edge">
<title>bk&#45;&gt;jp</title>
<path fill="none" stroke="blue" d="M1267.63,-941.13C1262.28,-932.99 1255.8,-923.12 1249.89,-914.13"/>
<polygon fill="blue" stroke="blue" points="1252.66,-911.97 1244.24,-905.53 1246.81,-915.81 1252.66,-911.97"/>
</g>
<!-- px -->
<g id="node3" class="node">
<title>px</title>
<polygon fill="none" stroke="black" points="586,-905.43 532,-905.43 532,-869.43 586,-869.43 586,-905.43"/>
<text text-anchor="middle" x="559" y="-883.73" font-family="Times,serif" font-size="14.00">px</text>
</g>
<!-- xc -->
<g id="node5" class="node">
<title>xc</title>
<ellipse fill="none" stroke="black" cx="559" cy="-815.43" rx="27" ry="18"/>
<text text-anchor="middle" x="559" y="-811.73" font-family="Times,serif" font-size="14.00">xc</text>
</g>
<!-- px&#45;&gt;xc -->
<g id="edge60" class="edge">
<title>px&#45;&gt;xc</title>
<path fill="none" stroke="blue" d="M559,-869.13C559,-861.41 559,-852.14 559,-843.54"/>
<polygon fill="blue" stroke="blue" points="562.5,-843.53 559,-833.53 555.5,-843.53 562.5,-843.53"/>
</g>
<!-- hg -->
<g id="node34" class="node">
<title>hg</title>
<polygon fill="none" stroke="black" points="744,-761.43 690,-761.43 690,-725.43 744,-725.43 744,-761.43"/>
<text text-anchor="middle" x="717" y="-739.73" font-family="Times,serif" font-size="14.00">hg</text>
</g>
<!-- px&#45;&gt;hg -->
<g id="edge61" class="edge">
<title>px&#45;&gt;hg</title>
<path fill="none" stroke="blue" d="M578.06,-869.3C606.05,-844.14 658.41,-797.08 690.25,-768.47"/>
<polygon fill="blue" stroke="blue" points="692.78,-770.91 697.87,-761.62 688.1,-765.7 692.78,-770.91"/>
</g>
<!-- tv -->
<g id="node4" class="node">
<title>tv</title>
<polygon fill="none" stroke="black" points="302,-761.43 248,-761.43 248,-725.43 302,-725.43 302,-761.43"/>
<text text-anchor="middle" x="275" y="-739.73" font-family="Times,serif" font-size="14.00">tv</text>
</g>
<!-- xl -->
<g id="node26" class="node">
<title>xl</title>
<polygon fill="none" stroke="black" points="282,-689.43 228,-689.43 228,-653.43 282,-653.43 282,-689.43"/>
<text text-anchor="middle" x="255" y="-667.73" font-family="Times,serif" font-size="14.00">xl</text>
</g>
<!-- tv&#45;&gt;xl -->
<g id="edge76" class="edge">
<title>tv&#45;&gt;xl</title>
<path fill="none" stroke="blue" d="M270.06,-725.13C267.83,-717.33 265.15,-707.94 262.67,-699.26"/>
<polygon fill="blue" stroke="blue" points="266,-698.19 259.89,-689.53 259.27,-700.11 266,-698.19"/>
</g>
<!-- tv&#45;&gt;gh -->
<g id="edge77" class="edge">
<title>tv&#45;&gt;gh</title>
<path fill="none" stroke="blue" d="M257.27,-761.67C243.42,-772.59 224.12,-786.66 208.07,-797.52"/>
<polygon fill="blue" stroke="blue" points="205.93,-794.73 199.54,-803.18 209.81,-800.57 205.93,-794.73"/>
</g>
<!-- bd -->
<g id="node6" class="node">
<title>bd</title>
<polygon fill="none" stroke="black" points="492,-340 438,-340 438,-304 492,-304 492,-340"/>
<text text-anchor="middle" x="465" y="-318.3" font-family="Times,serif" font-size="14.00">bd</text>
</g>
<!-- xc&#45;&gt;bd -->
<g id="edge70" class="edge">
<title>xc&#45;&gt;bd</title>
<path fill="none" stroke="black" d="M557.09,-797.41C554.64,-774.66 550.52,-733.07 549,-697.43 548.17,-677.89 542.98,-672.04 549,-653.43 555.07,-634.65 566.71,-635.34 575,-617.43 595.28,-573.64 585.67,-557.76 601,-512 605.3,-499.16 610.28,-497.26 613,-484 616.22,-468.33 617.01,-463.49 613,-448 603.82,-412.56 599.53,-401.22 573,-376 552.82,-356.82 524.38,-343.25 501.75,-334.64"/>
<polygon fill="black" stroke="black" points="502.73,-331.27 492.13,-331.14 500.33,-337.85 502.73,-331.27"/>
</g>
<!-- jf -->
<g id="node12" class="node">
<title>jf</title>
<ellipse fill="none" stroke="black" cx="645" cy="-743.43" rx="27" ry="18"/>
<text text-anchor="middle" x="645" y="-739.73" font-family="Times,serif" font-size="14.00">jf</text>
</g>
<!-- xc&#45;&gt;jf -->
<g id="edge71" class="edge">
<title>xc&#45;&gt;jf</title>
<path fill="none" stroke="black" d="M575.58,-800.93C588.31,-790.57 606.09,-776.1 620.46,-764.4"/>
<polygon fill="black" stroke="black" points="622.92,-766.91 628.47,-757.88 618.5,-761.48 622.92,-766.91"/>
</g>
<!-- hn -->
<g id="node16" class="node">
<title>hn</title>
<polygon fill="none" stroke="black" points="664,-586.71 610,-586.71 610,-550.71 664,-550.71 664,-586.71"/>
<text text-anchor="middle" x="637" y="-565.01" font-family="Times,serif" font-size="14.00">hn</text>
</g>
<!-- xc&#45;&gt;hn -->
<g id="edge72" class="edge">
<title>xc&#45;&gt;hn</title>
<path fill="none" stroke="black" d="M563.89,-797.25C566.83,-786.88 570.64,-773.4 574,-761.43 578.48,-745.44 574.67,-739.16 584,-725.43 595.59,-708.37 610.69,-715.29 621,-697.43 638.96,-666.34 640.68,-623.97 639.47,-596.72"/>
<polygon fill="black" stroke="black" points="642.96,-596.5 638.86,-586.73 635.97,-596.93 642.96,-596.5"/>
</g>
<!-- zq -->
<g id="node19" class="node">
<title>zq</title>
<polygon fill="none" stroke="black" points="816,-761.43 762,-761.43 762,-725.43 816,-725.43 816,-761.43"/>
<text text-anchor="middle" x="789" y="-739.73" font-family="Times,serif" font-size="14.00">zq</text>
</g>
<!-- xc&#45;&gt;zq -->
<g id="edge73" class="edge">
<title>xc&#45;&gt;zq</title>
<path fill="none" stroke="black" d="M583.49,-807.78C619.46,-799.01 687.67,-782.24 744,-761.43 746.83,-760.39 749.73,-759.2 752.66,-757.96"/>
<polygon fill="black" stroke="black" points="754.21,-761.1 761.97,-753.88 751.41,-754.69 754.21,-761.1"/>
</g>
<!-- xc&#45;&gt;hg -->
<g id="edge74" class="edge">
<title>xc&#45;&gt;hg</title>
<path fill="none" stroke="black" d="M581.13,-805.06C603.92,-795.36 640.66,-779.58 680.76,-761.48"/>
<polygon fill="black" stroke="black" points="682.25,-764.64 689.92,-757.33 679.36,-758.27 682.25,-764.64"/>
</g>
<!-- bm -->
<g id="node46" class="node">
<title>bm</title>
<polygon fill="none" stroke="black" points="604,-484 550,-484 550,-448 604,-448 604,-484"/>
<text text-anchor="middle" x="577" y="-462.3" font-family="Times,serif" font-size="14.00">bm</text>
</g>
<!-- xc&#45;&gt;bm -->
<g id="edge75" class="edge">
<title>xc&#45;&gt;bm</title>
<path fill="none" stroke="black" d="M549.15,-798.4C543.49,-788.22 536.94,-774.53 534,-761.43 523.51,-714.59 518.82,-698.97 534,-653.43 540.32,-634.46 553.68,-636.04 561,-617.43 576.99,-576.76 578.96,-525.41 578.37,-494.45"/>
<polygon fill="black" stroke="black" points="581.87,-494.29 578.08,-484.39 574.87,-494.49 581.87,-494.29"/>
</g>
<!-- bd&#45;&gt;px -->
<g id="edge59" class="edge">
<title>bd&#45;&gt;px</title>
<path fill="none" stroke="blue" d="M449.97,-340.42C442.38,-350.22 433.78,-363.06 429,-376 415.19,-413.33 419,-425.2 419,-465 419,-744.43 419,-744.43 419,-744.43 419,-803.49 481.17,-846.9 522.65,-869.28"/>
<polygon fill="blue" stroke="blue" points="521.19,-872.47 531.67,-874 524.43,-866.26 521.19,-872.47"/>
</g>
<!-- bh -->
<g id="node7" class="node">
<title>bh</title>
<ellipse fill="none" stroke="black" cx="367" cy="-743.43" rx="27" ry="18"/>
<text text-anchor="middle" x="367" y="-739.73" font-family="Times,serif" font-size="14.00">bh</text>
</g>
<!-- mf -->
<g id="node18" class="node">
<title>mf</title>
<ellipse fill="none" stroke="black" cx="922" cy="-671.43" rx="27" ry="18"/>
<text text-anchor="middle" x="922" y="-667.73" font-family="Times,serif" font-size="14.00">mf</text>
</g>
<!-- bh&#45;&gt;mf -->
<g id="edge108" class="edge">
<title>bh&#45;&gt;mf</title>
<path fill="none" stroke="red" d="M387.99,-731.71C393.7,-729.23 399.97,-726.9 406,-725.43 588.64,-680.99 642.53,-727.95 828,-697.43 848.34,-694.08 870.65,-688.25 888.43,-683.05"/>
<polygon fill="red" stroke="red" points="889.75,-686.31 898.32,-680.09 887.74,-679.6 889.75,-686.31"/>
</g>
<!-- dx -->
<g id="node8" class="node">
<title>dx</title>
<polygon fill="none" stroke="black" points="1284,-340 1230,-340 1230,-304 1284,-304 1284,-340"/>
<text text-anchor="middle" x="1257" y="-318.3" font-family="Times,serif" font-size="14.00">dx</text>
</g>
<!-- rb -->
<g id="node11" class="node">
<title>rb</title>
<polygon fill="none" stroke="black" points="1284,-268 1230,-268 1230,-232 1284,-232 1284,-268"/>
<text text-anchor="middle" x="1257" y="-246.3" font-family="Times,serif" font-size="14.00">rb</text>
</g>
<!-- dx&#45;&gt;rb -->
<g id="edge14" class="edge">
<title>dx&#45;&gt;rb</title>
<path fill="none" stroke="blue" d="M1257,-303.7C1257,-295.98 1257,-286.71 1257,-278.11"/>
<polygon fill="blue" stroke="blue" points="1260.5,-278.1 1257,-268.1 1253.5,-278.1 1260.5,-278.1"/>
</g>
<!-- dx&#45;&gt;cn -->
<g id="edge15" class="edge">
<title>dx&#45;&gt;cn</title>
<path fill="none" stroke="blue" d="M1267.24,-340.06C1272.82,-350.16 1279.32,-363.41 1283,-376 1294.15,-414.21 1293,-425.2 1293,-465 1293,-672.43 1293,-672.43 1293,-672.43 1293,-716.67 1267.98,-762.99 1250.25,-790.25"/>
<polygon fill="blue" stroke="blue" points="1247.23,-788.48 1244.57,-798.74 1253.04,-792.38 1247.23,-788.48"/>
</g>
<!-- vv -->
<g id="node9" class="node">
<title>vv</title>
<polygon fill="none" stroke="black" points="100,-484 46,-484 46,-448 100,-448 100,-484"/>
<text text-anchor="middle" x="73" y="-462.3" font-family="Times,serif" font-size="14.00">vv</text>
</g>
<!-- pp -->
<g id="node40" class="node">
<title>pp</title>
<polygon fill="none" stroke="black" points="100,-412 46,-412 46,-376 100,-376 100,-412"/>
<text text-anchor="middle" x="73" y="-390.3" font-family="Times,serif" font-size="14.00">pp</text>
</g>
<!-- vv&#45;&gt;pp -->
<g id="edge91" class="edge">
<title>vv&#45;&gt;pp</title>
<path fill="none" stroke="blue" d="M73,-447.7C73,-439.98 73,-430.71 73,-422.11"/>
<polygon fill="blue" stroke="blue" points="76.5,-422.1 73,-412.1 69.5,-422.1 76.5,-422.1"/>
</g>
<!-- vv&#45;&gt;gh -->
<g id="edge92" class="edge">
<title>vv&#45;&gt;gh</title>
<path fill="none" stroke="blue" d="M65.54,-484.19C62.32,-492.44 58.86,-502.56 57,-512 16.84,-716.16 39.05,-749.67 47,-761.43 68.13,-792.68 111.03,-805.5 142.2,-810.77"/>
<polygon fill="blue" stroke="blue" points="141.87,-814.26 152.28,-812.28 142.91,-807.33 141.87,-814.26"/>
</g>
<!-- broadcaster -->
<g id="node10" class="node">
<title>broadcaster</title>
<polygon fill="none" stroke="black" points="1003.89,-820.99 922,-833.43 840.11,-820.99 871.39,-800.87 972.61,-800.87 1003.89,-820.99"/>
<text text-anchor="middle" x="922" y="-811.73" font-family="Times,serif" font-size="14.00">broadcaster</text>
</g>
<!-- broadcaster&#45;&gt;tv -->
<g id="edge101" class="edge">
<title>broadcaster&#45;&gt;tv</title>
<path fill="none" stroke="green" d="M878.4,-800.86C862.67,-796.48 844.68,-792.09 828,-789.43 609.52,-754.6 548.84,-800.06 331,-761.43 324.7,-760.31 318.11,-758.71 311.75,-756.94"/>
<polygon fill="green" stroke="green" points="312.61,-753.55 302.03,-754.05 310.62,-760.26 312.61,-753.55"/>
</g>
<!-- cx -->
<g id="node14" class="node">
<title>cx</title>
<polygon fill="none" stroke="black" points="1082,-761.43 1028,-761.43 1028,-725.43 1082,-725.43 1082,-761.43"/>
<text text-anchor="middle" x="1055" y="-739.73" font-family="Times,serif" font-size="14.00">cx</text>
</g>
<!-- broadcaster&#45;&gt;cx -->
<g id="edge102" class="edge">
<title>broadcaster&#45;&gt;cx</title>
<path fill="none" stroke="green" d="M947.96,-800.77C968.16,-790.14 996.43,-775.26 1018.84,-763.46"/>
<polygon fill="green" stroke="green" points="1020.52,-766.53 1027.73,-758.78 1017.26,-760.34 1020.52,-766.53"/>
</g>
<!-- broadcaster&#45;&gt;zq -->
<g id="edge103" class="edge">
<title>broadcaster&#45;&gt;zq</title>
<path fill="none" stroke="green" d="M896.04,-800.77C875.84,-790.14 847.57,-775.26 825.16,-763.46"/>
<polygon fill="green" stroke="green" points="826.74,-760.34 816.27,-758.78 823.48,-766.53 826.74,-760.34"/>
</g>
<!-- rh -->
<g id="node42" class="node">
<title>rh</title>
<polygon fill="none" stroke="black" points="1432,-761.43 1378,-761.43 1378,-725.43 1432,-725.43 1432,-761.43"/>
<text text-anchor="middle" x="1405" y="-739.73" font-family="Times,serif" font-size="14.00">rh</text>
</g>
<!-- broadcaster&#45;&gt;rh -->
<g id="edge104" class="edge">
<title>broadcaster&#45;&gt;rh</title>
<path fill="none" stroke="green" d="M966.58,-800.81C982.09,-796.55 999.69,-792.23 1016,-789.43 1169.81,-763.05 1214.62,-799.35 1366,-761.43 1366.73,-761.25 1367.45,-761.05 1368.19,-760.85"/>
<polygon fill="green" stroke="green" points="1369.33,-764.16 1377.7,-757.67 1367.11,-757.52 1369.33,-764.16"/>
</g>
<!-- rb&#45;&gt;cn -->
<g id="edge16" class="edge">
<title>rb&#45;&gt;cn</title>
<path fill="none" stroke="blue" d="M1235.22,-268.17C1206.89,-292.61 1161,-340.33 1161,-393 1161,-467 1161,-467 1161,-467 1161,-534.01 1145.12,-555.62 1171,-617.43 1179.27,-637.18 1193.77,-634.12 1203,-653.43 1223.99,-697.33 1211.62,-713.68 1221,-761.43 1222.66,-769.89 1224.67,-779.07 1226.56,-787.37"/>
<polygon fill="blue" stroke="blue" points="1223.19,-788.34 1228.86,-797.3 1230.01,-786.76 1223.19,-788.34"/>
</g>
<!-- qr -->
<g id="node29" class="node">
<title>qr</title>
<polygon fill="none" stroke="black" points="1299,-196 1245,-196 1245,-160 1299,-160 1299,-196"/>
<text text-anchor="middle" x="1272" y="-174.3" font-family="Times,serif" font-size="14.00">qr</text>
</g>
<!-- rb&#45;&gt;qr -->
<g id="edge17" class="edge">
<title>rb&#45;&gt;qr</title>
<path fill="none" stroke="blue" d="M1260.71,-231.7C1262.36,-223.98 1264.35,-214.71 1266.19,-206.11"/>
<polygon fill="blue" stroke="blue" points="1269.66,-206.62 1268.33,-196.1 1262.82,-205.15 1269.66,-206.62"/>
</g>
<!-- jf&#45;&gt;mf -->
<g id="edge107" class="edge">
<title>jf&#45;&gt;mf</title>
<path fill="none" stroke="red" d="M665.58,-731.62C670.53,-729.33 675.87,-727.1 681,-725.43 744.24,-704.84 763.15,-712.21 828,-697.43 847.96,-692.88 870.09,-687.04 887.86,-682.14"/>
<polygon fill="red" stroke="red" points="889.08,-685.44 897.77,-679.39 887.2,-678.69 889.08,-685.44"/>
</g>
<!-- jd -->
<g id="node13" class="node">
<title>jd</title>
<polygon fill="none" stroke="black" points="1299,-124 1245,-124 1245,-88 1299,-88 1299,-124"/>
<text text-anchor="middle" x="1272" y="-102.3" font-family="Times,serif" font-size="14.00">jd</text>
</g>
<!-- mm -->
<g id="node23" class="node">
<title>mm</title>
<polygon fill="none" stroke="black" points="1354,-52 1300,-52 1300,-16 1354,-16 1354,-52"/>
<text text-anchor="middle" x="1327" y="-30.3" font-family="Times,serif" font-size="14.00">mm</text>
</g>
<!-- jd&#45;&gt;mm -->
<g id="edge20" class="edge">
<title>jd&#45;&gt;mm</title>
<path fill="none" stroke="blue" d="M1285.6,-87.7C1292.12,-79.39 1300.07,-69.28 1307.25,-60.14"/>
<polygon fill="blue" stroke="blue" points="1310.13,-62.13 1313.56,-52.1 1304.63,-57.81 1310.13,-62.13"/>
</g>
<!-- cx&#45;&gt;cn -->
<g id="edge1" class="edge">
<title>cx&#45;&gt;cn</title>
<path fill="none" stroke="blue" d="M1082.16,-753.55C1088.12,-756.19 1094.27,-759.01 1100,-761.43 1134.55,-776 1174.63,-790.78 1201.83,-801.01"/>
<polygon fill="blue" stroke="blue" points="1200.65,-804.3 1211.24,-804.56 1203.12,-797.75 1200.65,-804.3"/>
</g>
<!-- xd -->
<g id="node52" class="node">
<title>xd</title>
<polygon fill="none" stroke="black" points="1194,-689.43 1140,-689.43 1140,-653.43 1194,-653.43 1194,-689.43"/>
<text text-anchor="middle" x="1167" y="-667.73" font-family="Times,serif" font-size="14.00">xd</text>
</g>
<!-- cx&#45;&gt;xd -->
<g id="edge2" class="edge">
<title>cx&#45;&gt;xd</title>
<path fill="none" stroke="blue" d="M1082.11,-725.48C1096.86,-716.27 1115.29,-704.75 1131.21,-694.8"/>
<polygon fill="blue" stroke="blue" points="1133.12,-697.73 1139.75,-689.46 1129.41,-691.79 1133.12,-697.73"/>
</g>
<!-- zs -->
<g id="node15" class="node">
<title>zs</title>
<polygon fill="none" stroke="black" points="1638,-1193.43 1584,-1193.43 1584,-1157.43 1638,-1157.43 1638,-1193.43"/>
<text text-anchor="middle" x="1611" y="-1171.73" font-family="Times,serif" font-size="14.00">zs</text>
</g>
<!-- cz -->
<g id="node57" class="node">
<title>cz</title>
<polygon fill="none" stroke="black" points="1592,-1121.43 1538,-1121.43 1538,-1085.43 1592,-1085.43 1592,-1121.43"/>
<text text-anchor="middle" x="1565" y="-1099.73" font-family="Times,serif" font-size="14.00">cz</text>
</g>
<!-- zs&#45;&gt;cz -->
<g id="edge38" class="edge">
<title>zs&#45;&gt;cz</title>
<path fill="none" stroke="blue" d="M1599.63,-1157.13C1594.28,-1148.99 1587.8,-1139.12 1581.89,-1130.13"/>
<polygon fill="blue" stroke="blue" points="1584.66,-1127.97 1576.24,-1121.53 1578.81,-1131.81 1584.66,-1127.97"/>
</g>
<!-- hn&#45;&gt;bm -->
<g id="edge55" class="edge">
<title>hn&#45;&gt;bm</title>
<path fill="none" stroke="blue" d="M626.82,-550.63C617.43,-534.86 603.34,-511.21 592.53,-493.08"/>
<polygon fill="blue" stroke="blue" points="595.35,-490.97 587.23,-484.17 589.34,-494.55 595.35,-490.97"/>
</g>
<!-- xr -->
<g id="node17" class="node">
<title>xr</title>
<polygon fill="none" stroke="black" points="492,-412 438,-412 438,-376 492,-376 492,-412"/>
<text text-anchor="middle" x="465" y="-390.3" font-family="Times,serif" font-size="14.00">xr</text>
</g>
<!-- xr&#45;&gt;xc -->
<g id="edge57" class="edge">
<title>xr&#45;&gt;xc</title>
<path fill="none" stroke="blue" d="M460.71,-412.03C453.32,-442.87 439,-510.1 439,-567.71 439,-672.43 439,-672.43 439,-672.43 439,-713.07 435.23,-729.21 460,-761.43 476.18,-782.47 503.15,-796.12 524.86,-804.29"/>
<polygon fill="blue" stroke="blue" points="523.81,-807.63 534.41,-807.67 526.14,-801.03 523.81,-807.63"/>
</g>
<!-- xr&#45;&gt;bd -->
<g id="edge58" class="edge">
<title>xr&#45;&gt;bd</title>
<path fill="none" stroke="blue" d="M465,-375.7C465,-367.98 465,-358.71 465,-350.11"/>
<polygon fill="blue" stroke="blue" points="468.5,-350.1 465,-340.1 461.5,-350.1 468.5,-350.1"/>
</g>
<!-- rx -->
<g id="node59" class="node">
<title>rx</title>
<polygon fill="none" stroke="red" points="973.44,-580.27 934.14,-580.27 922,-617.65 909.86,-580.27 870.56,-580.27 902.35,-557.16 890.21,-519.78 922,-542.89 953.79,-519.78 941.65,-557.16 973.44,-580.27"/>
<text text-anchor="middle" x="922" y="-565.01" font-family="Times,serif" font-size="14.00">rx</text>
</g>
<!-- mf&#45;&gt;rx -->
<g id="edge109" class="edge">
<title>mf&#45;&gt;rx</title>
<path fill="none" stroke="red" d="M922,-653.34C922,-646.09 922,-637.17 922,-627.89"/>
<polygon fill="red" stroke="red" points="925.5,-627.73 922,-617.73 918.5,-627.73 925.5,-627.73"/>
</g>
<!-- zq&#45;&gt;xc -->
<g id="edge51" class="edge">
<title>zq&#45;&gt;xc</title>
<path fill="none" stroke="blue" d="M761.64,-761.56C704.79,-782.53 635.94,-799.38 594.74,-808.05"/>
<polygon fill="blue" stroke="blue" points="593.97,-804.64 584.88,-810.08 595.38,-811.49 593.97,-804.64"/>
</g>
<!-- kg -->
<g id="node54" class="node">
<title>kg</title>
<polygon fill="none" stroke="black" points="704,-689.43 650,-689.43 650,-653.43 704,-653.43 704,-689.43"/>
<text text-anchor="middle" x="677" y="-667.73" font-family="Times,serif" font-size="14.00">kg</text>
</g>
<!-- zq&#45;&gt;kg -->
<g id="edge52" class="edge">
<title>zq&#45;&gt;kg</title>
<path fill="none" stroke="blue" d="M761.89,-725.48C747.14,-716.27 728.71,-704.75 712.79,-694.8"/>
<polygon fill="blue" stroke="blue" points="714.59,-691.79 704.25,-689.46 710.88,-697.73 714.59,-691.79"/>
</g>
<!-- cn&#45;&gt;jd -->
<g id="edge3" class="edge">
<title>cn&#45;&gt;jd</title>
<path fill="none" stroke="red" d="M1219.6,-799.45C1210.44,-789 1198.15,-774.64 1188,-761.43 1176.13,-745.99 1175.98,-739.95 1163,-725.43 1150.4,-711.34 1139.48,-714.32 1131,-697.43 1105.47,-646.54 1121,-626.65 1121,-569.71 1121,-569.71 1121,-569.71 1121,-249 1121,-186.34 1190.85,-143.23 1235.54,-122.06"/>
<polygon fill="red" stroke="red" points="1237.03,-125.23 1244.66,-117.88 1234.11,-118.86 1237.03,-125.23"/>
</g>
<!-- cn&#45;&gt;cx -->
<g id="edge4" class="edge">
<title>cn&#45;&gt;cx</title>
<path fill="none" stroke="red" d="M1208.3,-807.98C1180.02,-799.15 1132.95,-782.43 1091.54,-765.4"/>
<polygon fill="red" stroke="red" points="1092.83,-762.15 1082.26,-761.54 1090.14,-768.61 1092.83,-762.15"/>
</g>
<!-- sh -->
<g id="node31" class="node">
<title>sh</title>
<ellipse fill="none" stroke="black" cx="1127" cy="-743.43" rx="27" ry="18"/>
<text text-anchor="middle" x="1127" y="-739.73" font-family="Times,serif" font-size="14.00">sh</text>
</g>
<!-- cn&#45;&gt;sh -->
<g id="edge5" class="edge">
<title>cn&#45;&gt;sh</title>
<path fill="none" stroke="red" d="M1214.54,-802.24C1197.84,-791.21 1173.05,-774.84 1154.11,-762.33"/>
<polygon fill="red" stroke="red" points="1155.88,-759.31 1145.61,-756.72 1152.02,-765.15 1155.88,-759.31"/>
</g>
<!-- tc -->
<g id="node50" class="node">
<title>tc</title>
<polygon fill="none" stroke="black" points="1274,-412 1220,-412 1220,-376 1274,-376 1274,-412"/>
<text text-anchor="middle" x="1247" y="-390.3" font-family="Times,serif" font-size="14.00">tc</text>
</g>
<!-- cn&#45;&gt;tc -->
<g id="edge6" class="edge">
<title>cn&#45;&gt;tc</title>
<path fill="none" stroke="red" d="M1240.9,-797.81C1252.56,-771.72 1273,-719.3 1273,-672.43 1273,-672.43 1273,-672.43 1273,-567.71 1273,-514.32 1272.99,-500.45 1263,-448 1261.36,-439.41 1258.87,-430.23 1256.33,-421.96"/>
<polygon fill="red" stroke="red" points="1259.66,-420.89 1253.27,-412.44 1253,-423.03 1259.66,-420.89"/>
</g>
<!-- cn&#45;&gt;xd -->
<g id="edge7" class="edge">
<title>cn&#45;&gt;xd</title>
<path fill="none" stroke="red" d="M1225.08,-797.74C1220.14,-787.31 1213.67,-773.6 1208,-761.43 1198.17,-740.35 1187.15,-716.41 1179.01,-698.67"/>
<polygon fill="red" stroke="red" points="1182.16,-697.14 1174.81,-689.51 1175.8,-700.06 1182.16,-697.14"/>
</g>
<!-- cs -->
<g id="node21" class="node">
<title>cs</title>
<polygon fill="none" stroke="black" points="1584,-412 1530,-412 1530,-376 1584,-376 1584,-412"/>
<text text-anchor="middle" x="1557" y="-390.3" font-family="Times,serif" font-size="14.00">cs</text>
</g>
<!-- xj -->
<g id="node36" class="node">
<title>xj</title>
<polygon fill="none" stroke="black" points="1624,-340 1570,-340 1570,-304 1624,-304 1624,-340"/>
<text text-anchor="middle" x="1597" y="-318.3" font-family="Times,serif" font-size="14.00">xj</text>
</g>
<!-- cs&#45;&gt;xj -->
<g id="edge34" class="edge">
<title>cs&#45;&gt;xj</title>
<path fill="none" stroke="blue" d="M1566.89,-375.7C1571.49,-367.64 1577.06,-357.89 1582.15,-348.98"/>
<polygon fill="blue" stroke="blue" points="1585.3,-350.52 1587.23,-340.1 1579.23,-347.05 1585.3,-350.52"/>
</g>
<!-- fb -->
<g id="node22" class="node">
<title>fb</title>
<polygon fill="none" stroke="black" points="1254,-484 1200,-484 1200,-448 1254,-448 1254,-484"/>
<text text-anchor="middle" x="1227" y="-462.3" font-family="Times,serif" font-size="14.00">fb</text>
</g>
<!-- fb&#45;&gt;cn -->
<g id="edge11" class="edge">
<title>fb&#45;&gt;cn</title>
<path fill="none" stroke="blue" d="M1234.65,-484.15C1237.93,-492.39 1241.37,-502.52 1243,-512 1260.29,-612.26 1245.7,-733.9 1237.57,-787.2"/>
<polygon fill="blue" stroke="blue" points="1234.09,-786.79 1235.99,-797.21 1241,-787.88 1234.09,-786.79"/>
</g>
<!-- fb&#45;&gt;tc -->
<g id="edge12" class="edge">
<title>fb&#45;&gt;tc</title>
<path fill="none" stroke="blue" d="M1231.94,-447.7C1234.17,-439.9 1236.85,-430.51 1239.33,-421.83"/>
<polygon fill="blue" stroke="blue" points="1242.73,-422.68 1242.11,-412.1 1236,-420.76 1242.73,-422.68"/>
</g>
<!-- mm&#45;&gt;bk -->
<g id="edge21" class="edge">
<title>mm&#45;&gt;bk</title>
<path fill="none" stroke="blue" d="M1332.26,-52.3C1339.86,-78.86 1353,-131.39 1353,-177 1353,-816.43 1353,-816.43 1353,-816.43 1353,-861.53 1323.29,-906.49 1301.52,-933.38"/>
<polygon fill="blue" stroke="blue" points="1298.77,-931.2 1295.06,-941.12 1304.15,-935.69 1298.77,-931.2"/>
</g>
<!-- mm&#45;&gt;cn -->
<g id="edge22" class="edge">
<title>mm&#45;&gt;cn</title>
<path fill="none" stroke="blue" d="M1328.19,-52.04C1329.93,-78.69 1333,-131.85 1333,-177 1333,-672.43 1333,-672.43 1333,-672.43 1333,-715.44 1320.46,-726.77 1295,-761.43 1285.35,-774.56 1271.85,-786.6 1259.91,-795.87"/>
<polygon fill="blue" stroke="blue" points="1257.48,-793.31 1251.57,-802.11 1261.67,-798.92 1257.48,-793.31"/>
</g>
<!-- sq -->
<g id="node24" class="node">
<title>sq</title>
<polygon fill="none" stroke="black" points="1549,-977.43 1495,-977.43 1495,-941.43 1549,-941.43 1549,-977.43"/>
<text text-anchor="middle" x="1522" y="-955.73" font-family="Times,serif" font-size="14.00">sq</text>
</g>
<!-- th -->
<g id="node44" class="node">
<title>th</title>
<polygon fill="none" stroke="black" points="1539,-905.43 1485,-905.43 1485,-869.43 1539,-869.43 1539,-905.43"/>
<text text-anchor="middle" x="1512" y="-883.73" font-family="Times,serif" font-size="14.00">th</text>
</g>
<!-- sq&#45;&gt;th -->
<g id="edge43" class="edge">
<title>sq&#45;&gt;th</title>
<path fill="none" stroke="blue" d="M1519.53,-941.13C1518.43,-933.41 1517.1,-924.14 1515.87,-915.54"/>
<polygon fill="blue" stroke="blue" points="1519.32,-914.94 1514.44,-905.53 1512.39,-915.93 1519.32,-914.94"/>
</g>
<!-- hz -->
<g id="node49" class="node">
<title>hz</title>
<ellipse fill="none" stroke="black" cx="1553" cy="-815.43" rx="27" ry="18"/>
<text text-anchor="middle" x="1553" y="-811.73" font-family="Times,serif" font-size="14.00">hz</text>
</g>
<!-- sq&#45;&gt;hz -->
<g id="edge44" class="edge">
<title>sq&#45;&gt;hz</title>
<path fill="none" stroke="blue" d="M1534.43,-941.36C1539.61,-933.3 1545.08,-923.29 1548,-913.43 1554.74,-890.65 1555.58,-863.56 1554.97,-843.8"/>
<polygon fill="blue" stroke="blue" points="1558.45,-843.49 1554.5,-833.66 1551.46,-843.81 1558.45,-843.49"/>
</g>
<!-- sz -->
<g id="node25" class="node">
<title>sz</title>
<polygon fill="none" stroke="black" points="272,-586.71 218,-586.71 218,-550.71 272,-550.71 272,-586.71"/>
<text text-anchor="middle" x="245" y="-565.01" font-family="Times,serif" font-size="14.00">sz</text>
</g>
<!-- vx -->
<g id="node56" class="node">
<title>vx</title>
<polygon fill="none" stroke="black" points="272,-484 218,-484 218,-448 272,-448 272,-484"/>
<text text-anchor="middle" x="245" y="-462.3" font-family="Times,serif" font-size="14.00">vx</text>
</g>
<!-- sz&#45;&gt;vx -->
<g id="edge80" class="edge">
<title>sz&#45;&gt;vx</title>
<path fill="none" stroke="blue" d="M245,-550.63C245,-535.22 245,-512.29 245,-494.33"/>
<polygon fill="blue" stroke="blue" points="248.5,-494.17 245,-484.17 241.5,-494.17 248.5,-494.17"/>
</g>
<!-- xl&#45;&gt;sz -->
<g id="edge78" class="edge">
<title>xl&#45;&gt;sz</title>
<path fill="none" stroke="blue" d="M253.3,-653.34C251.77,-637.94 249.5,-615 247.71,-597.05"/>
<polygon fill="blue" stroke="blue" points="251.18,-596.49 246.7,-586.88 244.21,-597.18 251.18,-596.49"/>
</g>
<!-- xl&#45;&gt;gh -->
<g id="edge79" class="edge">
<title>xl&#45;&gt;gh</title>
<path fill="none" stroke="blue" d="M248.04,-689.54C240.42,-707.74 227.48,-737.2 214,-761.43 208.61,-771.11 202.06,-781.36 196.09,-790.24"/>
<polygon fill="blue" stroke="blue" points="193.14,-788.36 190.38,-798.59 198.91,-792.31 193.14,-788.36"/>
</g>
<!-- vm -->
<g id="node27" class="node">
<title>vm</title>
<polygon fill="none" stroke="black" points="120,-586.71 66,-586.71 66,-550.71 120,-550.71 120,-586.71"/>
<text text-anchor="middle" x="93" y="-565.01" font-family="Times,serif" font-size="14.00">vm</text>
</g>
<!-- vm&#45;&gt;vv -->
<g id="edge89" class="edge">
<title>vm&#45;&gt;vv</title>
<path fill="none" stroke="blue" d="M89.61,-550.63C86.53,-535.15 81.95,-512.07 78.38,-494.08"/>
<polygon fill="blue" stroke="blue" points="81.79,-493.3 76.41,-484.17 74.92,-494.66 81.79,-493.3"/>
</g>
<!-- vm&#45;&gt;gh -->
<g id="edge90" class="edge">
<title>vm&#45;&gt;gh</title>
<path fill="none" stroke="blue" d="M100.98,-586.82C108.66,-603.59 120.34,-629.98 129,-653.43 138.21,-678.38 159.55,-749.06 171.15,-787.96"/>
<polygon fill="blue" stroke="blue" points="167.8,-788.98 174.01,-797.57 174.51,-786.98 167.8,-788.98"/>
</g>
<!-- jp&#45;&gt;cn -->
<g id="edge25" class="edge">
<title>jp&#45;&gt;cn</title>
<path fill="none" stroke="blue" d="M1233,-869.13C1233,-861.41 1233,-852.14 1233,-843.54"/>
<polygon fill="blue" stroke="blue" points="1236.5,-843.53 1233,-833.53 1229.5,-843.53 1236.5,-843.53"/>
</g>
<!-- qr&#45;&gt;jd -->
<g id="edge18" class="edge">
<title>qr&#45;&gt;jd</title>
<path fill="none" stroke="blue" d="M1272,-159.7C1272,-151.98 1272,-142.71 1272,-134.11"/>
<polygon fill="blue" stroke="blue" points="1275.5,-134.1 1272,-124.1 1268.5,-134.1 1275.5,-134.1"/>
</g>
<!-- qr&#45;&gt;cn -->
<g id="edge19" class="edge">
<title>qr&#45;&gt;cn</title>
<path fill="none" stroke="blue" d="M1281.15,-196.14C1285.25,-204.38 1289.85,-214.51 1293,-224 1306.85,-265.78 1313,-276.98 1313,-321 1313,-672.43 1313,-672.43 1313,-672.43 1313,-714.62 1301.7,-725.25 1280,-761.43 1273.25,-772.69 1263.96,-783.77 1255.42,-792.87"/>
<polygon fill="blue" stroke="blue" points="1252.65,-790.69 1248.19,-800.31 1257.67,-795.57 1252.65,-790.69"/>
</g>
<!-- bq -->
<g id="node30" class="node">
<title>bq</title>
<polygon fill="none" stroke="black" points="612,-689.43 558,-689.43 558,-653.43 612,-653.43 612,-689.43"/>
<text text-anchor="middle" x="585" y="-667.73" font-family="Times,serif" font-size="14.00">bq</text>
</g>
<!-- bq&#45;&gt;xc -->
<g id="edge63" class="edge">
<title>bq&#45;&gt;xc</title>
<path fill="none" stroke="blue" d="M581.27,-689.58C579.06,-699.94 576.26,-713.42 574,-725.43 570.12,-746.09 566.18,-769.54 563.32,-787.18"/>
<polygon fill="blue" stroke="blue" points="559.82,-786.9 561.69,-797.33 566.73,-788.02 559.82,-786.9"/>
</g>
<!-- zv -->
<g id="node41" class="node">
<title>zv</title>
<polygon fill="none" stroke="black" points="552,-586.71 498,-586.71 498,-550.71 552,-550.71 552,-586.71"/>
<text text-anchor="middle" x="525" y="-565.01" font-family="Times,serif" font-size="14.00">zv</text>
</g>
<!-- bq&#45;&gt;zv -->
<g id="edge64" class="edge">
<title>bq&#45;&gt;zv</title>
<path fill="none" stroke="blue" d="M574.82,-653.34C565.43,-637.57 551.34,-613.92 540.53,-595.79"/>
<polygon fill="blue" stroke="blue" points="543.35,-593.68 535.23,-586.88 537.34,-597.27 543.35,-593.68"/>
</g>
<!-- sh&#45;&gt;mf -->
<g id="edge105" class="edge">
<title>sh&#45;&gt;mf</title>
<path fill="none" stroke="red" d="M1105.89,-731.87C1101.05,-729.62 1095.89,-727.34 1091,-725.43 1045.45,-707.63 991.27,-691.49 956.76,-681.82"/>
<polygon fill="red" stroke="red" points="957.28,-678.33 946.71,-679.03 955.41,-685.08 957.28,-678.33"/>
</g>
<!-- gz -->
<g id="node32" class="node">
<title>gz</title>
<polygon fill="none" stroke="black" points="1544,-586.71 1490,-586.71 1490,-550.71 1544,-550.71 1544,-586.71"/>
<text text-anchor="middle" x="1517" y="-565.01" font-family="Times,serif" font-size="14.00">gz</text>
</g>
<!-- gz&#45;&gt;hz -->
<g id="edge30" class="edge">
<title>gz&#45;&gt;hz</title>
<path fill="none" stroke="blue" d="M1520.64,-586.97C1524.12,-603.86 1529.36,-630.34 1533,-653.43 1540.37,-700.22 1546.69,-755.01 1550.16,-787.1"/>
<polygon fill="blue" stroke="blue" points="1546.72,-787.89 1551.26,-797.46 1553.68,-787.14 1546.72,-787.89"/>
</g>
<!-- gs -->
<g id="node55" class="node">
<title>gs</title>
<polygon fill="none" stroke="black" points="1564,-484 1510,-484 1510,-448 1564,-448 1564,-484"/>
<text text-anchor="middle" x="1537" y="-462.3" font-family="Times,serif" font-size="14.00">gs</text>
</g>
<!-- gz&#45;&gt;gs -->
<g id="edge31" class="edge">
<title>gz&#45;&gt;gs</title>
<path fill="none" stroke="blue" d="M1520.39,-550.63C1523.47,-535.15 1528.05,-512.07 1531.62,-494.08"/>
<polygon fill="blue" stroke="blue" points="1535.08,-494.66 1533.59,-484.17 1528.21,-493.3 1535.08,-494.66"/>
</g>
<!-- qc -->
<g id="node33" class="node">
<title>qc</title>
<polygon fill="none" stroke="black" points="532,-484 478,-484 478,-448 532,-448 532,-484"/>
<text text-anchor="middle" x="505" y="-462.3" font-family="Times,serif" font-size="14.00">qc</text>
</g>
<!-- qc&#45;&gt;xc -->
<g id="edge67" class="edge">
<title>qc&#45;&gt;xc</title>
<path fill="none" stroke="blue" d="M497.35,-484.15C494.07,-492.39 490.63,-502.52 489,-512 470.13,-621.39 453.13,-661.76 502,-761.43 508.8,-775.29 520.88,-787.34 532.18,-796.43"/>
<polygon fill="blue" stroke="blue" points="530.1,-799.25 540.18,-802.51 534.34,-793.67 530.1,-799.25"/>
</g>
<!-- qg -->
<g id="node39" class="node">
<title>qg</title>
<polygon fill="none" stroke="black" points="564,-412 510,-412 510,-376 564,-376 564,-412"/>
<text text-anchor="middle" x="537" y="-390.3" font-family="Times,serif" font-size="14.00">qg</text>
</g>
<!-- qc&#45;&gt;qg -->
<g id="edge68" class="edge">
<title>qc&#45;&gt;qg</title>
<path fill="none" stroke="blue" d="M512.91,-447.7C516.55,-439.73 520.95,-430.1 524.99,-421.26"/>
<polygon fill="blue" stroke="blue" points="528.21,-422.65 529.18,-412.1 521.84,-419.74 528.21,-422.65"/>
</g>
<!-- hg&#45;&gt;bq -->
<g id="edge62" class="edge">
<title>hg&#45;&gt;bq</title>
<path fill="none" stroke="blue" d="M689.97,-728.1C670.17,-717.6 643.08,-703.23 621.38,-691.72"/>
<polygon fill="blue" stroke="blue" points="622.92,-688.58 612.45,-686.99 619.64,-694.76 622.92,-688.58"/>
</g>
<!-- dt -->
<g id="node35" class="node">
<title>dt</title>
<polygon fill="none" stroke="black" points="1549,-1049.43 1495,-1049.43 1495,-1013.43 1549,-1013.43 1549,-1049.43"/>
<text text-anchor="middle" x="1522" y="-1027.73" font-family="Times,serif" font-size="14.00">dt</text>
</g>
<!-- dt&#45;&gt;sq -->
<g id="edge41" class="edge">
<title>dt&#45;&gt;sq</title>
<path fill="none" stroke="blue" d="M1522,-1013.13C1522,-1005.41 1522,-996.14 1522,-987.54"/>
<polygon fill="blue" stroke="blue" points="1525.5,-987.53 1522,-977.53 1518.5,-987.53 1525.5,-987.53"/>
</g>
<!-- dt&#45;&gt;hz -->
<g id="edge42" class="edge">
<title>dt&#45;&gt;hz</title>
<path fill="none" stroke="blue" d="M1504.47,-1013.08C1497.61,-1005.27 1490.35,-995.54 1486,-985.43 1465.55,-937.9 1451.92,-915.23 1476,-869.43 1485.47,-851.42 1504.13,-838.33 1520.72,-829.67"/>
<polygon fill="blue" stroke="blue" points="1522.69,-832.6 1530.15,-825.08 1519.63,-826.31 1522.69,-832.6"/>
</g>
<!-- fz -->
<g id="node38" class="node">
<title>fz</title>
<polygon fill="none" stroke="black" points="1624,-268 1570,-268 1570,-232 1624,-232 1624,-268"/>
<text text-anchor="middle" x="1597" y="-246.3" font-family="Times,serif" font-size="14.00">fz</text>
</g>
<!-- xj&#45;&gt;fz -->
<g id="edge35" class="edge">
<title>xj&#45;&gt;fz</title>
<path fill="none" stroke="blue" d="M1597,-303.7C1597,-295.98 1597,-286.71 1597,-278.11"/>
<polygon fill="blue" stroke="blue" points="1600.5,-278.1 1597,-268.1 1593.5,-278.1 1600.5,-278.1"/>
</g>
<!-- qs -->
<g id="node37" class="node">
<title>qs</title>
<polygon fill="none" stroke="black" points="148,-340 94,-340 94,-304 148,-304 148,-340"/>
<text text-anchor="middle" x="121" y="-318.3" font-family="Times,serif" font-size="14.00">qs</text>
</g>
<!-- qs&#45;&gt;gh -->
<g id="edge95" class="edge">
<title>qs&#45;&gt;gh</title>
<path fill="none" stroke="blue" d="M130.95,-340.29C145.01,-366.42 169,-417.9 169,-465 169,-672.43 169,-672.43 169,-672.43 169,-712.53 173.02,-758.85 175.96,-787.39"/>
<polygon fill="blue" stroke="blue" points="172.49,-787.83 177.02,-797.41 179.45,-787.09 172.49,-787.83"/>
</g>
<!-- fz&#45;&gt;zs -->
<g id="edge36" class="edge">
<title>fz&#45;&gt;zs</title>
<path fill="none" stroke="blue" d="M1614.7,-268.28C1621.6,-276.08 1628.83,-285.82 1633,-296 1649.43,-336.11 1643,-349.66 1643,-393 1643,-1032.43 1643,-1032.43 1643,-1032.43 1643,-1073.39 1630.17,-1119.41 1620.76,-1147.66"/>
<polygon fill="blue" stroke="blue" points="1617.41,-1146.63 1617.48,-1157.22 1624.03,-1148.9 1617.41,-1146.63"/>
</g>
<!-- fz&#45;&gt;hz -->
<g id="edge37" class="edge">
<title>fz&#45;&gt;hz</title>
<path fill="none" stroke="blue" d="M1578.78,-268.08C1571.8,-275.85 1564.64,-285.62 1561,-296 1554.53,-314.45 1554.05,-321.72 1561,-340 1568.61,-360.01 1584.29,-356.45 1593,-376 1609.2,-412.36 1603,-425.2 1603,-465 1603,-672.43 1603,-672.43 1603,-672.43 1603,-715.45 1582.33,-761.85 1567.57,-789.5"/>
<polygon fill="blue" stroke="blue" points="1564.39,-788.01 1562.64,-798.46 1570.53,-791.39 1564.39,-788.01"/>
</g>
<!-- qg&#45;&gt;xc -->
<g id="edge69" class="edge">
<title>qg&#45;&gt;xc</title>
<path fill="none" stroke="blue" d="M509.84,-408.86C495.12,-417.9 478.12,-431.15 469,-448 443.59,-494.96 459,-514.32 459,-567.71 459,-672.43 459,-672.43 459,-672.43 459,-713.4 459.44,-727.91 483,-761.43 494.44,-777.71 512.58,-790.63 528.26,-799.64"/>
<polygon fill="blue" stroke="blue" points="526.69,-802.77 537.14,-804.49 530.04,-796.63 526.69,-802.77"/>
</g>
<!-- pp&#45;&gt;qs -->
<g id="edge93" class="edge">
<title>pp&#45;&gt;qs</title>
<path fill="none" stroke="blue" d="M84.87,-375.7C90.5,-367.47 97.35,-357.48 103.57,-348.42"/>
<polygon fill="blue" stroke="blue" points="106.5,-350.33 109.27,-340.1 100.73,-346.37 106.5,-350.33"/>
</g>
<!-- pp&#45;&gt;gh -->
<g id="edge94" class="edge">
<title>pp&#45;&gt;gh</title>
<path fill="none" stroke="blue" d="M58.61,-412.06C51.02,-421.95 42.21,-434.99 37,-448 16.94,-498.07 17,-513.77 17,-567.71 17,-672.43 17,-672.43 17,-672.43 17,-712.54 6.29,-730.64 32,-761.43 59.27,-794.07 108.27,-806.61 142.16,-811.43"/>
<polygon fill="blue" stroke="blue" points="141.79,-814.91 152.15,-812.69 142.67,-807.96 141.79,-814.91"/>
</g>
<!-- zv&#45;&gt;xc -->
<g id="edge65" class="edge">
<title>zv&#45;&gt;xc</title>
<path fill="none" stroke="blue" d="M519.61,-586.79C509.7,-621.11 491.59,-700.4 514,-761.43 518.44,-773.52 527,-784.75 535.47,-793.72"/>
<polygon fill="blue" stroke="blue" points="533.23,-796.43 542.79,-801 538.17,-791.46 533.23,-796.43"/>
</g>
<!-- zv&#45;&gt;qc -->
<g id="edge66" class="edge">
<title>zv&#45;&gt;qc</title>
<path fill="none" stroke="blue" d="M521.61,-550.63C518.53,-535.15 513.95,-512.07 510.38,-494.08"/>
<polygon fill="blue" stroke="blue" points="513.79,-493.3 508.41,-484.17 506.92,-494.66 513.79,-493.3"/>
</g>
<!-- rh&#45;&gt;hz -->
<g id="edge26" class="edge">
<title>rh&#45;&gt;hz</title>
<path fill="none" stroke="blue" d="M1432.17,-754.92C1458.34,-766.34 1497.52,-784.74 1524.2,-798.06"/>
<polygon fill="blue" stroke="blue" points="1522.92,-801.33 1533.42,-802.71 1526.07,-795.08 1522.92,-801.33"/>
</g>
<!-- mr -->
<g id="node51" class="node">
<title>mr</title>
<polygon fill="none" stroke="black" points="1524,-689.43 1470,-689.43 1470,-653.43 1524,-653.43 1524,-689.43"/>
<text text-anchor="middle" x="1497" y="-667.73" font-family="Times,serif" font-size="14.00">mr</text>
</g>
<!-- rh&#45;&gt;mr -->
<g id="edge27" class="edge">
<title>rh&#45;&gt;mr</title>
<path fill="none" stroke="blue" d="M1427.74,-725.13C1439.44,-716.23 1453.86,-705.25 1466.51,-695.63"/>
<polygon fill="blue" stroke="blue" points="1468.68,-698.37 1474.52,-689.53 1464.44,-692.8 1468.68,-698.37"/>
</g>
<!-- gh&#45;&gt;tv -->
<g id="edge96" class="edge">
<title>gh&#45;&gt;tv</title>
<path fill="none" stroke="red" d="M193.3,-799.93C205.48,-790.13 223.22,-777.02 239.13,-766"/>
<polygon fill="red" stroke="red" points="241.44,-768.66 247.73,-760.13 237.49,-762.88 241.44,-768.66"/>
</g>
<!-- gh&#45;&gt;bh -->
<g id="edge97" class="edge">
<title>gh&#45;&gt;bh</title>
<path fill="none" stroke="red" d="M202.05,-805.85C235.26,-793.48 296.73,-770.59 334.52,-756.52"/>
<polygon fill="red" stroke="red" points="335.9,-759.74 344.05,-752.97 333.46,-753.18 335.9,-759.74"/>
</g>
<!-- gh&#45;&gt;sz -->
<g id="edge98" class="edge">
<title>gh&#45;&gt;sz</title>
<path fill="none" stroke="red" d="M184.07,-797.3C187.08,-786.95 190.9,-773.47 194,-761.43 206.27,-713.71 206.13,-700.99 219,-653.43 224.15,-634.39 230.75,-613.17 236.01,-596.86"/>
<polygon fill="red" stroke="red" points="239.48,-597.51 239.25,-586.92 232.82,-595.35 239.48,-597.51"/>
</g>
<!-- lk -->
<g id="node47" class="node">
<title>lk</title>
<polygon fill="none" stroke="black" points="110,-761.43 56,-761.43 56,-725.43 110,-725.43 110,-761.43"/>
<text text-anchor="middle" x="83" y="-739.73" font-family="Times,serif" font-size="14.00">lk</text>
</g>
<!-- gh&#45;&gt;lk -->
<g id="edge99" class="edge">
<title>gh&#45;&gt;lk</title>
<path fill="none" stroke="red" d="M161.39,-801.59C148.42,-792.13 130.42,-779.01 114.94,-767.72"/>
<polygon fill="red" stroke="red" points="116.79,-764.73 106.65,-761.67 112.66,-770.39 116.79,-764.73"/>
</g>
<!-- gh&#45;&gt;vx -->
<g id="edge100" class="edge">
<title>gh&#45;&gt;vx</title>
<path fill="none" stroke="red" d="M177.4,-797.24C173.67,-749.77 167.6,-613.64 209,-512 211.85,-504.99 216.16,-498.2 220.82,-492.1"/>
<polygon fill="red" stroke="red" points="223.62,-494.21 227.28,-484.27 218.22,-489.76 223.62,-494.21"/>
</g>
<!-- th&#45;&gt;hz -->
<g id="edge45" class="edge">
<title>th&#45;&gt;hz</title>
<path fill="none" stroke="blue" d="M1522.13,-869.13C1527.04,-860.75 1533.03,-850.53 1538.42,-841.33"/>
<polygon fill="blue" stroke="blue" points="1541.51,-842.97 1543.54,-832.57 1535.47,-839.43 1541.51,-842.97"/>
</g>
<!-- mz -->
<g id="node45" class="node">
<title>mz</title>
<ellipse fill="none" stroke="black" cx="1477" cy="-743.43" rx="27" ry="18"/>
<text text-anchor="middle" x="1477" y="-739.73" font-family="Times,serif" font-size="14.00">mz</text>
</g>
<!-- mz&#45;&gt;mf -->
<g id="edge106" class="edge">
<title>mz&#45;&gt;mf</title>
<path fill="none" stroke="red" d="M1456.94,-731.34C1451.88,-729 1446.35,-726.82 1441,-725.43 1257.75,-677.96 1202.79,-728.12 1016,-697.43 995.66,-694.09 973.35,-688.25 955.57,-683.06"/>
<polygon fill="red" stroke="red" points="956.26,-679.61 945.68,-680.1 954.25,-686.32 956.26,-679.61"/>
</g>
<!-- bm&#45;&gt;xr -->
<g id="edge56" class="edge">
<title>bm&#45;&gt;xr</title>
<path fill="none" stroke="blue" d="M549.89,-448.05C535.14,-438.84 516.71,-427.32 500.79,-417.37"/>
<polygon fill="blue" stroke="blue" points="502.59,-414.36 492.25,-412.03 498.88,-420.3 502.59,-414.36"/>
</g>
<!-- pg -->
<g id="node53" class="node">
<title>pg</title>
<polygon fill="none" stroke="black" points="120,-689.43 66,-689.43 66,-653.43 120,-653.43 120,-689.43"/>
<text text-anchor="middle" x="93" y="-667.73" font-family="Times,serif" font-size="14.00">pg</text>
</g>
<!-- lk&#45;&gt;pg -->
<g id="edge86" class="edge">
<title>lk&#45;&gt;pg</title>
<path fill="none" stroke="blue" d="M85.47,-725.13C86.57,-717.41 87.9,-708.14 89.13,-699.54"/>
<polygon fill="blue" stroke="blue" points="92.61,-699.93 90.56,-689.53 85.68,-698.94 92.61,-699.93"/>
</g>
<!-- jx&#45;&gt;gh -->
<g id="edge84" class="edge">
<title>jx&#45;&gt;gh</title>
<path fill="none" stroke="blue" d="M144.37,-869.13C150.02,-860.54 156.93,-850.01 163.09,-840.64"/>
<polygon fill="blue" stroke="blue" points="166.13,-842.38 168.7,-832.1 160.28,-838.54 166.13,-842.38"/>
</g>
<!-- jx&#45;&gt;lk -->
<g id="edge85" class="edge">
<title>jx&#45;&gt;lk</title>
<path fill="none" stroke="blue" d="M126.97,-869.3C118.37,-844.89 102.52,-799.86 92.38,-771.06"/>
<polygon fill="blue" stroke="blue" points="95.68,-769.89 89.05,-761.62 89.07,-772.21 95.68,-769.89"/>
</g>
<!-- hz&#45;&gt;zs -->
<g id="edge46" class="edge">
<title>hz&#45;&gt;zs</title>
<path fill="none" stroke="red" d="M1564.18,-832.18C1581.04,-857.51 1611,-909.43 1611,-958.43 1611,-1032.43 1611,-1032.43 1611,-1032.43 1611,-1072.43 1611,-1118.78 1611,-1147.35"/>
<polygon fill="red" stroke="red" points="1607.5,-1147.38 1611,-1157.38 1614.5,-1147.38 1607.5,-1147.38"/>
</g>
<!-- hz&#45;&gt;cs -->
<g id="edge47" class="edge">
<title>hz&#45;&gt;cs</title>
<path fill="none" stroke="red" d="M1558.93,-797.62C1567.67,-771.29 1583,-718.54 1583,-672.43 1583,-672.43 1583,-672.43 1583,-567.71 1583,-514.32 1582.99,-500.45 1573,-448 1571.36,-439.41 1568.87,-430.23 1566.33,-421.96"/>
<polygon fill="red" stroke="red" points="1569.66,-420.89 1563.27,-412.44 1563,-423.03 1569.66,-420.89"/>
</g>
<!-- hz&#45;&gt;xj -->
<g id="edge48" class="edge">
<title>hz&#45;&gt;xj</title>
<path fill="none" stroke="red" d="M1571.04,-801.96C1583.48,-792.37 1599.28,-777.97 1608,-761.43 1626.72,-725.95 1623,-712.54 1623,-672.43 1623,-672.43 1623,-672.43 1623,-465 1623,-424.55 1612.67,-378.67 1605.03,-350.28"/>
<polygon fill="red" stroke="red" points="1608.31,-349 1602.26,-340.3 1601.56,-350.87 1608.31,-349"/>
</g>
<!-- hz&#45;&gt;rh -->
<g id="edge49" class="edge">
<title>hz&#45;&gt;rh</title>
<path fill="none" stroke="red" d="M1529.91,-805.71C1506.05,-795.43 1468.77,-778.04 1441.07,-764.41"/>
<polygon fill="red" stroke="red" points="1442.59,-761.25 1432.08,-759.94 1439.48,-767.52 1442.59,-761.25"/>
</g>
<!-- hz&#45;&gt;mz -->
<g id="edge50" class="edge">
<title>hz&#45;&gt;mz</title>
<path fill="none" stroke="red" d="M1537.62,-800.26C1526.8,-790.3 1512.14,-776.8 1499.95,-765.57"/>
<polygon fill="red" stroke="red" points="1502.08,-762.77 1492.36,-758.57 1497.34,-767.92 1502.08,-762.77"/>
</g>
<!-- tc&#45;&gt;dx -->
<g id="edge13" class="edge">
<title>tc&#45;&gt;dx</title>
<path fill="none" stroke="blue" d="M1249.47,-375.7C1250.57,-367.98 1251.9,-358.71 1253.13,-350.11"/>
<polygon fill="blue" stroke="blue" points="1256.61,-350.5 1254.56,-340.1 1249.68,-349.51 1256.61,-350.5"/>
</g>
<!-- mr&#45;&gt;gz -->
<g id="edge28" class="edge">
<title>mr&#45;&gt;gz</title>
<path fill="none" stroke="blue" d="M1500.39,-653.34C1503.47,-637.86 1508.05,-614.79 1511.62,-596.79"/>
<polygon fill="blue" stroke="blue" points="1515.08,-597.37 1513.59,-586.88 1508.21,-596.01 1515.08,-597.37"/>
</g>
<!-- mr&#45;&gt;hz -->
<g id="edge29" class="edge">
<title>mr&#45;&gt;hz</title>
<path fill="none" stroke="blue" d="M1503.84,-689.78C1513.57,-714.43 1531.46,-759.81 1542.77,-788.48"/>
<polygon fill="blue" stroke="blue" points="1539.54,-789.84 1546.47,-797.86 1546.05,-787.28 1539.54,-789.84"/>
</g>
<!-- jk -->
<g id="node58" class="node">
<title>jk</title>
<polygon fill="none" stroke="black" points="1234,-586.71 1180,-586.71 1180,-550.71 1234,-550.71 1234,-586.71"/>
<text text-anchor="middle" x="1207" y="-565.01" font-family="Times,serif" font-size="14.00">jk</text>
</g>
<!-- xd&#45;&gt;jk -->
<g id="edge8" class="edge">
<title>xd&#45;&gt;jk</title>
<path fill="none" stroke="blue" d="M1173.79,-653.34C1179.99,-637.72 1189.27,-614.35 1196.44,-596.29"/>
<polygon fill="blue" stroke="blue" points="1199.74,-597.47 1200.18,-586.88 1193.24,-594.89 1199.74,-597.47"/>
</g>
<!-- pg&#45;&gt;vm -->
<g id="edge87" class="edge">
<title>pg&#45;&gt;vm</title>
<path fill="none" stroke="blue" d="M93,-653.34C93,-637.94 93,-615 93,-597.05"/>
<polygon fill="blue" stroke="blue" points="96.5,-596.88 93,-586.88 89.5,-596.88 96.5,-596.88"/>
</g>
<!-- pg&#45;&gt;gh -->
<g id="edge88" class="edge">
<title>pg&#45;&gt;gh</title>
<path fill="none" stroke="blue" d="M102.46,-689.68C112.47,-707.75 128.87,-736.86 144,-761.43 149.9,-771.01 156.65,-781.37 162.64,-790.36"/>
<polygon fill="blue" stroke="blue" points="159.84,-792.47 168.32,-798.83 165.66,-788.57 159.84,-792.47"/>
</g>
<!-- kg&#45;&gt;xc -->
<g id="edge53" class="edge">
<title>kg&#45;&gt;xc</title>
<path fill="none" stroke="blue" d="M650.07,-689.65C636.65,-699.11 620.81,-711.7 609,-725.43 592.57,-744.54 578.96,-769.88 570.11,-788.64"/>
<polygon fill="blue" stroke="blue" points="566.91,-787.23 565.93,-797.77 573.27,-790.14 566.91,-787.23"/>
</g>
<!-- kg&#45;&gt;hn -->
<g id="edge54" class="edge">
<title>kg&#45;&gt;hn</title>
<path fill="none" stroke="blue" d="M670.21,-653.34C664.01,-637.72 654.73,-614.35 647.56,-596.29"/>
<polygon fill="blue" stroke="blue" points="650.76,-594.89 643.82,-586.88 644.26,-597.47 650.76,-594.89"/>
</g>
<!-- gs&#45;&gt;cs -->
<g id="edge32" class="edge">
<title>gs&#45;&gt;cs</title>
<path fill="none" stroke="blue" d="M1541.94,-447.7C1544.17,-439.9 1546.85,-430.51 1549.33,-421.83"/>
<polygon fill="blue" stroke="blue" points="1552.73,-422.68 1552.11,-412.1 1546,-420.76 1552.73,-422.68"/>
</g>
<!-- gs&#45;&gt;hz -->
<g id="edge33" class="edge">
<title>gs&#45;&gt;hz</title>
<path fill="none" stroke="blue" d="M1544.65,-484.15C1547.93,-492.39 1551.37,-502.52 1553,-512 1570.28,-612.2 1561.42,-733.87 1556.07,-787.19"/>
<polygon fill="blue" stroke="blue" points="1552.59,-786.89 1555.03,-797.2 1559.55,-787.62 1552.59,-786.89"/>
</g>
<!-- vx&#45;&gt;cd -->
<g id="edge81" class="edge">
<title>vx&#45;&gt;cd</title>
<path fill="none" stroke="blue" d="M261.63,-484.17C268.5,-492.1 276.02,-501.96 281,-512 313.31,-577.04 321,-597.81 321,-670.43 321,-816.43 321,-816.43 321,-816.43 321,-876.23 257.25,-919.64 215.18,-941.78"/>
<polygon fill="blue" stroke="blue" points="213.36,-938.78 206.04,-946.44 216.54,-945.02 213.36,-938.78"/>
</g>
<!-- cz&#45;&gt;dt -->
<g id="edge39" class="edge">
<title>cz&#45;&gt;dt</title>
<path fill="none" stroke="blue" d="M1554.37,-1085.13C1549.37,-1076.99 1543.31,-1067.12 1537.79,-1058.13"/>
<polygon fill="blue" stroke="blue" points="1540.72,-1056.22 1532.51,-1049.53 1534.76,-1059.89 1540.72,-1056.22"/>
</g>
<!-- cz&#45;&gt;hz -->
<g id="edge40" class="edge">
<title>cz&#45;&gt;hz</title>
<path fill="none" stroke="blue" d="M1564.44,-1085.18C1563.16,-1046.54 1559.84,-950.1 1556,-869.43 1555.6,-861.11 1555.11,-852.06 1554.64,-843.83"/>
<polygon fill="blue" stroke="blue" points="1558.13,-843.39 1554.05,-833.61 1551.14,-843.8 1558.13,-843.39"/>
</g>
<!-- jk&#45;&gt;cn -->
<g id="edge9" class="edge">
<title>jk&#45;&gt;cn</title>
<path fill="none" stroke="blue" d="M1209.47,-587.01C1211.83,-603.92 1215.42,-630.41 1218,-653.43 1223.24,-700.1 1228.04,-754.52 1230.73,-786.63"/>
<polygon fill="blue" stroke="blue" points="1227.28,-787.34 1231.59,-797.02 1234.25,-786.76 1227.28,-787.34"/>
</g>
<!-- jk&#45;&gt;fb -->
<g id="edge10" class="edge">
<title>jk&#45;&gt;fb</title>
<path fill="none" stroke="blue" d="M1210.39,-550.63C1213.47,-535.15 1218.05,-512.07 1221.62,-494.08"/>
<polygon fill="blue" stroke="blue" points="1225.08,-494.66 1223.59,-484.17 1218.21,-493.3 1225.08,-494.66"/>
</g>
</g>
</svg>
